PathFileType	4	(X/Y/Z)	C:/Users/beibeiliu/ov580/test_trc/User3\sequence.23_training_dense_right.trc
DataRate	CameraRate	NumFrames	NumMarkers	Units	OrigDataRate	OrigDataStartFrame	OrigNumFrames
120	120	20	19	mm	120	147	293
Frame#	Time	ThumbCMC			ThumbMCP			ThumbIP			ThumbTip			IndexMCP			IndexPIP			IndexTip			MiddleMCP			MiddlePIP			MiddleTip			RingMCP			RingPIP			RingTip			PinkyMCP			PinkyPIP			PinkyTip			BackHand1			BackHand2			BackHand3	
		X0	Y0	Z0	X1	Y1	Z1	X2	Y2	Z2	X3	Y3	Z3	X4	Y4	Z4	X5	Y5	Z5	X6	Y6	Z6	X7	Y7	Z7	X8	Y8	Z8	X9	Y9	Z9	X10	Y10	Z10	X11	Y11	Z11	X12	Y12	Z12	X13	Y13	Z13	X14	Y14	Z14	X15	Y15	Z15	X16	Y16	Z16	X17	Y17	Z17	X18	Y18	Z18	
146	1.21667	146.731	20.5662	35.5025	124.156	29.7559	10.7927	99.6842	18.2141	-4.30225	89.382	-8.14217	-1.54524	115.248	-0.620637	-36.4076	101.9	1.634	-56.6084	85.6672	2.70602	-77.5564	116.415	-22.8939	-36.7754	98.6776	-24.9566	-59.4975	77.834	-29.2489	-82.4998	116.29	-40.3379	-27.5956	102.451	-46.5141	-48.5811	84.0296	-53.7576	-67.8838	119.68	-57.2619	-4.62996	110.207	-66.1972	-23.4944	98.4821	-79.1268	-40.9534	150.709	-39.4847	11.9046	169.422	-36.6245	33.8244	161.64	-7.53365	14.6959	
147	1.225	152.604	22.3138	30.0311	134.735	32.8754	9.49675	110.978	20.1237	-11.2102	99.0546	-1.3543	-6.74163	128.586	6.23063	-42.8864	117.332	8.25961	-61.0482	101.342	3.63304	-85.887	125.995	-19.0231	-41.5506	110.248	-21.1938	-66.5999	89.5658	-23.5716	-93.3221	124.372	-37.4663	-29.8652	111.387	-42.0459	-54.2533	95.942	-46.4094	-74.5328	124.825	-56.0888	-12.2655	115.463	-62.9608	-31.5234	103.082	-69.4947	-50.544	156.52	-34.0522	5.48922	170.45	-36.7224	32.7962	167.894	-4.60405	16.2853	
148	1.23333	160.573	24.0957	27.5411	143.58	33.9203	4.43715	122.688	21.6185	-15.8786	110.974	-1.57654	-13.2861	142.619	3.39192	-44.2703	133.472	5.72483	-69.1813	121.353	6.00775	-93.9333	138.683	-21.6273	-49.1631	125.912	-19.4354	-76.3592	108.297	-18.1015	-102.915	135.43	-35.0857	-36.7062	125.708	-40.7456	-59.2407	110.956	-44.1176	-82.9493	132.789	-51.2134	-14.8395	124.306	-62.6881	-34.1141	115.58	-72.6498	-53.609	164.437	-34.5478	5.67051	175.51	-35.3819	29.399	175.609	-6.42351	14.9674	
149	1.24167	168.459	20.7356	24.7589	153.231	32.6171	-3.52562	133.126	18.3491	-25.9528	120.245	-4.39715	-21.6298	158.363	3.35776	-51.6168	149.756	3.54905	-77.7129	142.562	6.57058	-102.003	153.416	-21.2101	-54.2873	144.517	-23.2796	-77.6627	127.98	-24.0135	-109.02	148.57	-36.9214	-43.805	141.137	-44.3819	-64.5303	128.237	-45.1116	-89.5905	143.436	-56.8773	-22.7819	134.677	-69.017	-40.8098	124.685	-75.7058	-61.8505	170.925	-37.93	1.70672	183.798	-37.4386	29.5486	185.827	-9.29557	11.8999	
150	1.25	178.569	20.4227	21.2368	166.966	29.4943	-5.75999	146.197	16.1839	-32.8454	134.671	-8.52451	-24.2413	173.12	-5.00144	-53.3791	168.127	-3.32116	-78.0176	163.4	-4.0485	-102.754	168.884	-26.3477	-55.3548	160.788	-28.0251	-82.6801	148.661	-31.8614	-114.099	162.047	-41.9795	-45.8792	156.094	-49.0359	-67.2964	145.239	-55.4405	-96.9279	153.099	-60.8472	-26.6545	147.041	-72.6629	-44.1095	138.2	-82.079	-64.6987	182.348	-40.9446	1.02916	190.652	-43.3567	28.7924	194.978	-9.46194	8.11138	
151	1.25833	189.354	14.3435	17.2638	179.68	21.6541	-15.0278	161.918	9.13055	-36.3829	146.692	-16.0187	-33.5551	190.009	-10.317	-56.8019	188.766	-9.20662	-82.3258	183.501	-11.0965	-112.334	183.425	-37.5883	-59.8885	177.502	-41.239	-88.024	168.165	-44.807	-118.519	175.659	-51.9549	-46.0422	172.492	-60.4777	-73.501	165.383	-64.5644	-95.8776	164.959	-64.7765	-26.8331	160.536	-77.9713	-42.6527	152.907	-91.3674	-64.5027	192.814	-46.6989	-2.27555	198.647	-45.9996	26.2807	204.799	-17.1069	5.92062	
152	1.26667	199.673	8.88871	9.89178	191.112	16.103	-20.8891	176.588	-4.45872	-42.2621	161.408	-24.8266	-37.0408	206.7	-19.8571	-58.6066	205.846	-25.1427	-83.8547	204.488	-28.8242	-113.835	200.097	-48.5854	-57.5302	198.135	-53.4975	-86.6037	191.893	-56.7592	-117.513	190.761	-66.2417	-50.0531	189.592	-73.8605	-72.8402	183.362	-79.9723	-94.5694	177.585	-77.0388	-25.5005	175.482	-88.2681	-46.2185	168.422	-100.734	-66.8701	203.304	-52.6763	-0.796753	205.594	-53.4578	31.9073	215.056	-22.7733	6.0808	
153	1.275	207.096	0.478858	8.20576	203.987	7.61508	-24.5494	190.139	-14.2987	-51.5758	176.157	-36.2433	-45.2221	222.739	-34.6243	-57.924	226.918	-38.4446	-85.1016	226.644	-44.4733	-110.91	218.802	-61.8676	-60.3306	218.973	-66.1403	-86.723	213.375	-77.7859	-115.652	206.226	-73.5054	-45.2553	208.322	-80.9179	-67.3898	205.418	-91.2179	-92.9119	192.09	-81.5998	-26.5421	191.133	-99.624	-46.2289	189.946	-109.041	-63.1758	213.462	-63.6024	3.10505	213.173	-52.0015	32.3662	225.072	-26.6707	8.42261	
154	1.28333	216.228	-2.16061	7.86587	216.206	-0.637208	-28.755	206.135	-24.8605	-53.4534	190.043	-46.4215	-50.0068	242.544	-40.7646	-58.3552	247.351	-49.2008	-82.0984	248.971	-58.1296	-105.566	237.404	-65.8947	-52.113	240.428	-79.6657	-82.5452	240.794	-87.7994	-113.993	226.522	-81.516	-44.5761	228.493	-93.3725	-65.2264	228.323	-106.31	-88.2949	209.115	-89.8671	-24.5408	211.233	-105.38	-43.0119	214.232	-116.88	-63.1572	225.008	-67.2345	4.38812	223.358	-59.4836	31.5116	234.379	-32.7001	11.0156	
155	1.29167	220.662	-7.68887	6.18087	223.833	-6.75466	-29.7962	216.716	-30.5054	-51.8021	204.874	-55.8972	-49.8752	256.381	-48.3924	-56.1734	264.649	-53.4165	-80.0409	268.064	-63.9856	-101.746	254.635	-72.3519	-49.0638	260.976	-82.4415	-73.4794	266.103	-93.2607	-106.816	242.772	-85.7696	-36.6449	248.948	-99.8558	-56.4102	255.445	-108.679	-82.0239	224.857	-95.736	-19.8173	231.699	-109.25	-35.5107	238.551	-123.67	-52.5011	235.039	-66.495	8.34083	228.771	-62.1952	36.3577	244.631	-33.2333	11.8134	
156	1.3	222.618	-10.7659	7.48559	228.092	-7.71282	-29.1865	226.168	-32.5634	-52.8975	217.554	-57.2349	-46.9872	267.229	-46.6982	-51.192	276.017	-53.4353	-76.1887	283.652	-57.1449	-94.7832	270.531	-68.3033	-48.0115	278.865	-81.4273	-71.7116	286.967	-89.6725	-101.718	257.222	-86.8473	-32.5438	270.01	-97.9482	-54.1462	277.949	-107.609	-79.5885	241.782	-96.5965	-15.6339	253.454	-111.416	-33.76	263.504	-122.542	-51.5471	247.991	-71.2507	9.6474	236.339	-62.7509	37.7566	247.359	-34.2155	15.0612	
157	1.30833	223.524	-9.16757	5.93979	226.836	-5.57788	-25.6651	230.262	-28.047	-49.3696	227.509	-54.1599	-50.6124	274.182	-36.3247	-49.3955	286.35	-41.3989	-73.9747	293.82	-45.8379	-93.3537	280.066	-62.572	-44.8972	289.647	-65.2495	-67.1309	302.032	-79.5065	-98.0254	275.378	-76.9007	-34.6175	287.067	-85.8157	-55.4346	295.945	-94.9909	-78.219	258.361	-93.221	-14.5081	271.962	-100.754	-30.9164	286.174	-114.888	-48.8853	257.587	-64.6748	10.3538	243.969	-57.2722	38.4468	253.234	-30.4816	16.3528	
158	1.31667	218.634	-7.59408	7.49172	228.648	-4.18124	-27.5212	236.341	-24.3168	-51.6541	236.436	-51.4174	-47.7445	274.769	-25.8076	-45.8429	287.561	-22.6903	-71.7093	299.559	-26.6626	-95.5216	288.487	-47.0502	-46.6073	300.029	-53.6924	-69.6659	313.402	-60.0176	-96.8716	284.069	-68.7485	-31.737	297.518	-70.7517	-51.6078	309.984	-80.8104	-75.0063	273.345	-84.5408	-13.5676	287.727	-89.107	-29.4525	301.97	-99.3228	-44.6802	263.375	-55.4046	16.015	251.389	-50.2679	40.663	251.462	-21.2771	15.1305	
159	1.325	219.093	-7.96977	3.79823	221.595	1.9724	-25.451	234.787	-17.3896	-49.9727	241.819	-45.4946	-51.9216	276.259	-12.3346	-48.0891	283.683	-5.96363	-70.1743	298.243	-7.40958	-93.852	290.731	-33.4123	-43.6408	303.164	-33.6071	-67.4839	317.984	-37.0266	-95.5166	290.811	-51.8379	-33.526	303.182	-52.6962	-53.4509	318.094	-55.2368	-80.737	284.721	-72.5881	-14.4208	300.885	-73.5016	-32.2514	316.424	-83.3316	-45.2177	271.531	-46.5697	10.867	254.75	-44.8878	36.0162	249.966	-15.0349	13.5714	
160	1.33333	211.733	-7.38096	7.4433	217.884	1.38436	-22.5701	229.309	-9.56625	-47.1583	243.254	-37.0607	-51.8572	268.76	1.83938	-49.7743	276.631	7.19786	-69.8001	287.23	14.0767	-95.7594	287.354	-17.0943	-43.6146	303.739	-15.6397	-72.0386	314.405	-13.7621	-95.3258	290.261	-35.1125	-35.2771	306.701	-33.7205	-56.75	319.987	-35.5959	-78.475	287.688	-56.2934	-16.889	308.328	-58.6267	-32.0829	322.954	-58.7305	-49.696	271.304	-37.9613	13.4672	259.628	-41.705	36.1065	250.758	-12.3873	14.0606	
161	1.34167	211.002	-10.707	4.81724	206.872	4.34224	-24.5093	222.024	-4.16543	-52.0293	240.734	-30.0473	-56.5562	257.71	10.4142	-50.8399	265.303	17.1426	-72.8661	275.546	25.5167	-99.9558	281.348	-2.83936	-50.1264	292.568	2.00123	-74.8678	305.077	3.65393	-98.3224	290.719	-20.8976	-39.6283	302.387	-17.3377	-59.0046	317.434	-17.3915	-83.3585	292.852	-44.3601	-19.5383	306.172	-41.7799	-33.5302	324.351	-43.3844	-48.7626	268.626	-26.0304	11.9263	260.815	-32.6195	34.3115	240.543	-5.18111	13.2221	
162	1.35	201.807	-12.818	7.07315	199.588	0.488411	-25.1759	217.125	-7.33266	-53.1402	231.467	-26.3428	-58.2612	246.766	11.7535	-52.6577	253.911	18.8797	-77.3443	259.329	26.2013	-105.401	271.256	3.07438	-53.6333	283.242	4.21042	-74.1565	290.848	13.3211	-103.756	284.269	-15.1792	-40.8368	297.05	-9.66392	-61.8957	308.631	-7.66708	-82.8221	290.172	-34.7936	-22.9554	306.952	-34.1606	-35.138	323.916	-31.8909	-51.1235	264.449	-16.667	5.90592	254.861	-24.3643	36.5791	233.9	-1.8082	12.6635	
163	1.35833	197.324	-15.4375	5.89959	190.048	-4.67446	-25.0507	205.179	-12.1467	-50.9568	223.237	-30.3668	-58.0975	236.026	5.60664	-55.4332	240.714	12.8864	-81.2372	239.875	18.5686	-106.021	262.643	0.73911	-56.8616	269.275	5.40514	-80.4803	279.171	10.1546	-113.188	274.914	-12.642	-45.6172	285.667	-7.71097	-65.252	298.454	-6.96491	-92.4375	286.035	-33.1076	-21.1326	300.198	-27.7095	-39.2828	316.42	-25.6485	-57.9506	262.536	-15.8624	3.09825	254.078	-19.8453	33.623	226.308	-2.4336	5.74971	
164	1.36667	187.258	-19.7012	8.45378	183.933	-12.0992	-25.0479	198.008	-22.0342	-51.0983	214.944	-38.8713	-58.6963	222.228	-0.371488	-64.2635	225.964	2.1887	-87.1359	229.47	3.30363	-116.025	249.172	-5.62042	-59.915	260.053	-6.00047	-85.0863	262.828	-4.82953	-115.594	267.59	-18.6248	-48.2645	278.804	-17.1668	-69.9554	288.07	-18.3439	-93.5261	278.017	-33.8838	-26.4057	290.711	-30.9024	-43.6671	307.735	-28.51	-62.9868	252.101	-14.6197	1.75695	247.933	-16.5151	29.2507	218.446	-6.46893	7.83515	
165	1.375	182.713	-25.1424	9.01016	173.353	-20.8276	-23.0621	187.738	-32.2535	-51.1469	202.638	-48.9486	-55.0295	214.737	-13.9355	-63.2641	211.219	-13.3943	-93.1118	212.262	-17.4836	-115.752	238.611	-18.9505	-65.1715	244.428	-22.0065	-90.6283	251.819	-26.9515	-122.187	256.811	-29.3626	-51.4758	266.334	-31.8278	-73.606	275.247	-36.5234	-100.213	269.431	-41.0037	-26.4009	284.723	-43.3235	-42.5087	298.304	-43.1499	-66.3199	246.498	-18.3486	0.0934258	240.645	-18.2247	31.5308	210.747	-10.4782	6.2868	
